<?xml version="1.0" standalone="no"?>
<!DOCTYPE svg PUBLIC "-//W3C//DTD SVG 20010904//EN"
 "http://www.w3.org/TR/2001/REC-SVG-20010904/DTD/svg10.dtd">
<svg version="1.0" xmlns="http://www.w3.org/2000/svg"
 width="128.000000pt" height="128.000000pt" viewBox="0 0 128.000000 128.000000"
 preserveAspectRatio="xMidYMid meet">
<metadata>
Created by potrace 1.11, written by Peter Selinger 2001-2013
</metadata>
<g transform="translate(0.000000,128.000000) scale(0.100000,-0.100000)"
fill="#000000" stroke="none">
<path d="M36 1220 c-10 -11 -12 -59 -8 -200 4 -186 5 -221 2 -295 -1 -22 -2
-76 -1 -120 0 -44 -1 -183 -2 -308 -2 -173 1 -231 10 -239 8 -6 72 -9 170 -8
201 4 538 4 625 2 166 -6 289 66 362 210 67 132 56 274 -30 404 -43 65 -83 99
-159 135 -60 28 -94 37 -151 38 l-31 1 19 56 c14 41 17 68 12 98 -4 23 -8 74
-9 113 0 42 -6 78 -13 85 -7 7 -12 8 -12 4 0 -5 -6 -4 -12 2 -35 28 -136 34
-556 36 -169 1 -206 -2 -216 -14z m604 -34 l164 -5 -1 -83 -2 -83 -365 -3
-366 -2 -1 22 c0 13 -2 52 -3 88 -2 36 -1 68 0 71 3 6 291 4 574 -5z m175
-273 c-2 -26 -3 -51 -4 -55 -1 -4 -15 -5 -31 -1 -23 4 -50 -4 -113 -34 l-82
-40 -250 4 c-137 2 -251 6 -253 7 -1 2 -5 37 -8 79 l-5 76 58 3 c32 2 200 4
374 6 l317 3 -3 -48z m179 -148 c193 -91 262 -342 143 -517 -35 -51 -118 -116
-175 -136 -45 -17 -145 -25 -137 -11 4 5 -16 9 -47 9 -73 1 -129 29 -197 99
-55 57 -74 95 -101 199 -17 67 -44 51 -45 -28 l0 -45 -177 0 c-97 1 -180 3
-183 6 -3 3 -7 42 -9 87 l-5 82 57 1 c95 1 265 1 299 0 27 -1 32 -5 35 -28 l3
-28 18 32 c10 18 17 35 17 38 -1 3 13 32 30 64 76 143 195 213 347 206 51 -3
87 -11 127 -30z m-464 -33 c0 -3 -13 -27 -30 -53 -16 -27 -36 -64 -44 -84
l-15 -35 -185 0 -186 0 -1 33 c-1 17 -3 55 -5 84 l-4 52 118 3 c190 5 352 5
352 0z m-31 -496 c16 -29 48 -69 70 -88 23 -19 41 -37 41 -40 0 -2 -19 -4 -42
-4 -24 -1 -119 -4 -213 -9 -93 -4 -197 -8 -230 -9 l-60 -1 2 95 c2 51 7 96 13
100 5 3 95 6 199 7 l190 2 30 -53z"/>
</g>
</svg>
